<svg xmlns="http://www.w3.org/2000/svg" width="720" height="420" viewBox="0 0 720 420">
  <rect width="100%" height="100%" fill="#ffffff"/>
  <style>
    text { font-family: Arial, sans-serif; fill: #1f2937; }
    .title { font-size: 22px; font-weight: 700; }
    .label { font-size: 13px; fill: #4b5563; }
    .axis { stroke: #374151; stroke-width: 2; }
    .grid { stroke: #e5e7eb; stroke-width: 1; }
  </style>
  <text x="360.0" y="32" text-anchor="middle" class="title">Python Line Chart</text>
  <line x1="56" y1="364" x2="664" y2="364" class="axis"/>
  <line x1="56" y1="56" x2="56" y2="364" class="axis"/>
  <line x1="56" y1="364.0" x2="664" y2="364.0" class="grid"/>
  <text x="46" y="368.0" text-anchor="end" class="label">0</text>
  <line x1="56" y1="287.0" x2="664" y2="287.0" class="grid"/>
  <text x="46" y="291.0" text-anchor="end" class="label">75</text>
  <line x1="56" y1="210.0" x2="664" y2="210.0" class="grid"/>
  <text x="46" y="214.0" text-anchor="end" class="label">150</text>
  <line x1="56" y1="133.0" x2="664" y2="133.0" class="grid"/>
  <text x="46" y="137.0" text-anchor="end" class="label">225</text>
  <line x1="56" y1="56.0" x2="664" y2="56.0" class="grid"/>
  <text x="46" y="60.0" text-anchor="end" class="label">300</text>
  <polyline points="56.0,240.8 157.3,210.0 258.7,225.4 360.0,179.2 461.3,138.1 562.7,97.1 664.0,117.6" fill="none" stroke="#16a34a" stroke-width="4" stroke-linecap="round" stroke-linejoin="round"/>
  <circle cx="56.0" cy="240.8" r="5" fill="#15803d"/>
  <text x="56.0" y="398" text-anchor="middle" class="label">D1</text>
  <circle cx="157.3" cy="210.0" r="5" fill="#15803d"/>
  <text x="157.3" y="398" text-anchor="middle" class="label">D2</text>
  <circle cx="258.7" cy="225.4" r="5" fill="#15803d"/>
  <text x="258.7" y="398" text-anchor="middle" class="label">D3</text>
  <circle cx="360.0" cy="179.2" r="5" fill="#15803d"/>
  <text x="360.0" y="398" text-anchor="middle" class="label">D4</text>
  <circle cx="461.3" cy="138.1" r="5" fill="#15803d"/>
  <text x="461.3" y="398" text-anchor="middle" class="label">D5</text>
  <circle cx="562.7" cy="97.1" r="5" fill="#15803d"/>
  <text x="562.7" y="398" text-anchor="middle" class="label">D6</text>
  <circle cx="664.0" cy="117.6" r="5" fill="#15803d"/>
  <text x="664.0" y="398" text-anchor="middle" class="label">D7</text>
</svg>
