<svg xmlns="http://www.w3.org/2000/svg" width="720" height="420" viewBox="0 0 720 420">
  <rect width="100%" height="100%" fill="#ffffff"/>
  <style>
    text { font-family: Arial, sans-serif; fill: #1f2937; }
    .title { font-size: 22px; font-weight: 700; }
    .label { font-size: 13px; fill: #4b5563; }
    .axis { stroke: #374151; stroke-width: 2; }
    .grid { stroke: #e5e7eb; stroke-width: 1; }
  </style>
  <text x="360" y="32" text-anchor="middle" class="title">TypeScript Bar Chart</text>
  <line x1="56" y1="364" x2="664" y2="364" class="axis"/>
  <line x1="56" y1="56" x2="56" y2="364" class="axis"/>
  <line x1="56" y1="364.0" x2="664" y2="364.0" class="grid"/>
  <text x="46" y="368.0" text-anchor="end" class="label">0</text>
  <line x1="56" y1="287.0" x2="664" y2="287.0" class="grid"/>
  <text x="46" y="291.0" text-anchor="end" class="label">25</text>
  <line x1="56" y1="210.0" x2="664" y2="210.0" class="grid"/>
  <text x="46" y="214.0" text-anchor="end" class="label">50</text>
  <line x1="56" y1="133.0" x2="664" y2="133.0" class="grid"/>
  <text x="46" y="137.0" text-anchor="end" class="label">75</text>
  <line x1="56" y1="56.0" x2="664" y2="56.0" class="grid"/>
  <text x="46" y="60.0" text-anchor="end" class="label">100</text>
  <rect x="81.5" y="234.6" width="70.5" height="129.4" rx="5" fill="#f97316"/>
  <text x="116.8" y="226.6" text-anchor="middle" class="label">42</text>
  <text x="116.8" y="398" text-anchor="middle" class="label">A</text>
  <rect x="203.1" y="154.6" width="70.5" height="209.4" rx="5" fill="#f97316"/>
  <text x="238.4" y="146.6" text-anchor="middle" class="label">68</text>
  <text x="238.4" y="398" text-anchor="middle" class="label">B</text>
  <rect x="324.7" y="197.7" width="70.5" height="166.3" rx="5" fill="#f97316"/>
  <text x="360.0" y="189.7" text-anchor="middle" class="label">54</text>
  <text x="360.0" y="398" text-anchor="middle" class="label">C</text>
  <rect x="446.3" y="114.5" width="70.5" height="249.5" rx="5" fill="#f97316"/>
  <text x="481.6" y="106.5" text-anchor="middle" class="label">81</text>
  <text x="481.6" y="398" text-anchor="middle" class="label">D</text>
  <rect x="567.9" y="170.0" width="70.5" height="194.0" rx="5" fill="#f97316"/>
  <text x="603.2" y="162.0" text-anchor="middle" class="label">63</text>
  <text x="603.2" y="398" text-anchor="middle" class="label">E</text>
</svg>
