<svg xmlns="http://www.w3.org/2000/svg" width="720" height="420" viewBox="0 0 720 420">
  <rect width="100%" height="100%" fill="#ffffff"/>
  <style>
    text { font-family: Arial, sans-serif; fill: #1f2937; }
    .title { font-size: 22px; font-weight: 700; }
    .label { font-size: 13px; fill: #4b5563; }
    .axis { stroke: #374151; stroke-width: 2; }
    .grid { stroke: #e5e7eb; stroke-width: 1; }
  </style>
  <text x="360" y="32" text-anchor="middle" class="title">TypeScript Scatter Chart</text>
  <line x1="56" y1="364" x2="664" y2="364" class="axis"/>
  <line x1="56" y1="56" x2="56" y2="364" class="axis"/>
  <line x1="56" y1="364.0" x2="664" y2="364.0" class="grid"/>
  <text x="46" y="368.0" text-anchor="end" class="label">0</text>
  <line x1="56" y1="287.0" x2="664" y2="287.0" class="grid"/>
  <text x="46" y="291.0" text-anchor="end" class="label">2</text>
  <line x1="56" y1="210.0" x2="664" y2="210.0" class="grid"/>
  <text x="46" y="214.0" text-anchor="end" class="label">3</text>
  <line x1="56" y1="133.0" x2="664" y2="133.0" class="grid"/>
  <text x="46" y="137.0" text-anchor="end" class="label">5</text>
  <line x1="56" y1="56.0" x2="664" y2="56.0" class="grid"/>
  <text x="46" y="60.0" text-anchor="end" class="label">6</text>
  <circle cx="142.9" cy="261.3" r="7" fill="#2563eb"/>
  <circle cx="229.7" cy="204.9" r="7" fill="#2563eb"/>
  <circle cx="316.6" cy="230.5" r="7" fill="#2563eb"/>
  <circle cx="403.4" cy="148.4" r="7" fill="#2563eb"/>
  <circle cx="490.3" cy="117.6" r="7" fill="#2563eb"/>
  <circle cx="577.1" cy="86.8" r="7" fill="#2563eb"/>
</svg>
